<svg width="285" height="292" viewBox="0 0 285 292" fill="none" xmlns="http://www.w3.org/2000/svg">
<g clip-path="url(#clip0_37_14)">
<path d="M68.821 0.269875C75.214 0.269874 81.6069 0.269874 88.0375 0.361351C88.2119 0.565191 88.3355 0.75182 88.4874 0.778742C90.645 1.16111 92.8181 1.46402 94.9646 1.89918C100.321 2.98518 105.5 4.64751 110.463 6.94527C115.291 9.18067 119.745 12.0029 123.965 15.2601C128.035 18.4013 131.683 21.9476 134.823 25.9745C138.436 30.6082 141.357 35.6709 143.567 41.1515C146.255 47.8213 147.575 54.7603 147.871 61.8983C148.053 66.2915 147.792 70.6938 146.793 74.9906C145.916 78.7625 145.022 82.5549 143.749 86.2032C142.507 89.7618 140.775 93.1494 139.256 96.6168C147.908 98.2757 156.524 100.658 165.17 104.274C165.17 100.794 165.06 97.6164 165.207 94.4505C165.316 92.129 165.559 89.7745 166.098 87.5198C167.6 81.2394 170.016 75.3323 173.824 70.0498C176.467 66.3849 179.479 63.0309 183.065 60.322C187.992 56.5999 193.352 53.5508 199.431 52.1083C203.17 51.2211 206.956 50.2997 210.768 50.009C216.13 49.5999 221.519 49.933 226.838 50.989C232.506 52.1144 237.963 53.8837 243.193 56.3087C248.537 58.7871 253.419 61.9941 258.047 65.6694C262.466 69.1782 266.48 73.0711 269.957 77.4579C273.728 82.216 276.938 87.3518 279.425 92.9551C281.921 98.579 283.948 104.294 284.752 110.413C284.776 110.6 285.091 110.75 285.27 110.917C285.27 116.32 285.27 121.723 285.184 127.158C284.982 127.324 284.793 127.441 284.761 127.592C284.289 129.815 283.927 132.064 283.367 134.264C281.633 141.076 278.351 147.15 273.782 152.412C269.326 157.543 263.992 161.606 257.682 164.405C250.878 167.425 243.775 168.898 236.409 169.164C233.495 169.269 230.562 168.872 227.577 168.7C229.707 174.907 231.411 181.173 232.151 187.67C232.485 190.603 233.103 193.531 233.123 196.465C233.157 201.502 232.929 206.549 232.598 211.577C232.429 214.144 231.896 216.701 231.354 219.225C230.18 224.683 228.762 230.079 226.429 235.182C225.015 238.273 223.698 241.426 222.039 244.385C219.38 249.126 216.446 253.743 212.738 257.729C208.527 262.256 204.202 266.712 199.579 270.807C196.601 273.443 193.041 275.441 189.664 277.604C184.063 281.191 178.102 284.098 171.835 286.307C164.66 288.834 157.341 290.849 149.755 291.752C149.568 291.774 149.416 292.091 149.247 292.27C139.616 292.27 129.984 292.27 120.32 292.183C120.065 291.975 119.854 291.785 119.616 291.742C115.954 291.081 112.246 290.615 108.633 289.752C102.362 288.253 96.0798 286.686 90.2249 283.896C84.32 281.083 78.366 278.328 72.6787 275.114C66.2773 271.496 60.4924 266.908 55.117 261.9C51.3639 258.404 47.7843 254.67 44.514 250.721C41.2804 246.818 38.2385 242.686 35.6486 238.336C32.6386 233.28 30.0092 227.968 27.5916 222.598C25.4138 217.76 23.7125 212.687 22.7884 207.438C21.8827 202.293 20.9049 197.119 20.6123 191.922C20.3274 186.862 20.6769 181.739 21.1121 176.675C21.4565 172.667 22.0601 168.631 23.0611 164.739C25.5636 155.01 29.4487 145.836 35.1178 137.488C36.8077 134.999 38.6326 132.602 40.2067 130.425C36.8429 128.605 33.3782 126.932 30.1201 124.923C24.6616 121.557 19.5837 117.676 15.4364 112.713C14.0281 111.028 12.6346 109.325 11.3252 107.563C8.54385 103.82 6.38069 99.73 4.55658 95.4395C2.80729 91.325 1.54785 87.084 0.791124 82.6833C0.750359 82.4462 0.449608 82.2539 0.269882 82.0407C0.269883 75.6481 0.269883 69.2555 0.357186 62.8285C0.655096 62.0541 0.948906 61.3266 1.06325 60.572C2.0466 54.0825 4.21607 47.9793 7.30916 42.233C9.12662 38.8566 11.143 35.5549 13.3898 32.4511C15.6119 29.3815 18.1252 26.4986 20.7226 23.7328C22.4996 21.8405 24.639 20.2885 26.6176 18.5857C31.8932 14.0451 37.7435 10.4138 44.1062 7.61167C51.8518 4.20057 59.8311 1.60292 68.3133 0.787255C68.4974 0.769548 68.6524 0.449098 68.821 0.269875ZM171.038 118.412C163.366 113.67 155.09 110.358 146.368 108.165C140.874 106.784 135.292 105.898 129.607 105.785C126.391 105.722 125.916 104.915 127.512 102.294C127.629 102.103 127.745 101.911 127.861 101.719C132.882 93.3863 135.636 84.3056 136.208 74.6507C136.441 70.7178 136.001 66.6994 135.463 62.7752C134.052 52.469 129.41 43.6265 122.152 36.306C115.157 29.2496 106.755 24.6426 96.8753 22.5665C88.5434 20.8156 80.3178 20.9832 72.0842 22.5724C66.6136 23.6283 61.4579 25.7383 56.5111 28.3244C48.1379 32.7017 41.061 38.6356 35.285 46.0958C26.8907 56.9379 22.4372 69.2141 22.4678 82.9536C22.4757 86.5283 23.0528 90.1564 23.8092 93.665C26.3069 105.252 31.8737 115.051 41.5634 122.14C47.1786 126.249 53.0234 130.044 58.7637 133.981C60.5454 135.203 60.646 136.229 59.1145 137.781C57.4087 139.51 55.718 141.255 53.9646 142.935C50.4514 146.299 47.7124 150.234 45.5389 154.546C40.8528 163.843 38.2357 173.772 37.3154 184.09C36.7309 190.643 36.9659 197.232 38.0585 203.772C39.3285 211.374 41.4401 218.725 44.7112 225.683C54.211 245.889 69.2992 260.356 89.8451 269.121C98.8719 272.972 108.229 275.503 118.059 276.048C121.778 276.255 125.518 276.459 129.231 276.287C132.682 276.127 136.115 275.506 139.546 275.015C147.903 273.817 155.809 271.217 163.426 267.573C178.618 260.307 190.768 249.656 199.778 235.432C208.136 222.238 212.191 207.745 212.629 192.208C212.707 189.408 212.462 186.577 212.103 183.794C211.533 179.372 211.09 174.886 209.953 170.597C208.651 165.683 206.65 160.955 204.955 156.145C204.732 155.514 204.412 154.89 204.339 154.239C204.237 153.344 204.541 152.539 205.674 152.767C206.744 152.983 207.844 153.233 208.82 153.7C215.981 157.131 223.486 159.14 231.45 159.18C233.49 159.19 235.543 158.951 237.57 158.674C247.06 157.376 255.199 153.268 261.907 146.48C269.656 138.638 273.343 128.933 274.166 118.094C274.57 112.763 274.033 107.453 272.646 102.276C269.02 88.7419 261.557 77.8752 249.926 69.9591C239.42 62.8086 227.841 59.7826 215.209 61.318C206.087 62.4266 198.207 66.441 191.657 72.7926C184.499 79.7334 180.356 88.3039 178.964 98.2063C178.245 103.321 178.21 108.413 179.249 113.473C179.821 116.26 180.638 118.997 181.248 121.777C181.378 122.368 181.285 123.444 180.957 123.603C180.38 123.884 179.534 123.687 178.819 123.574C178.499 123.523 178.224 123.192 177.926 122.992C175.69 121.492 173.453 119.994 171.038 118.412Z" fill="#6D28D9"/>
</g>
<defs>
<clipPath id="clip0_37_14">
<rect width="285" height="292" fill="white"/>
</clipPath>
</defs>
</svg>
